bw_sq_01
version=1
nRows=9
nColumns=46
inDegrees=yes
endheader
time	ground_force3_vx	ground_force3_vy	ground_force3_vz	ground_force3_px	ground_force3_py	ground_force3_pz	ground_torque3_x	ground_torque3_y	ground_torque3_z	ground_force5_vx	ground_force5_vy	ground_force5_vz	ground_force5_px	ground_force5_py	ground_force5_pz	ground_torque5_x	ground_torque5_y	ground_torque5_z	ground_force4_vx	ground_force4_vy	ground_force4_vz	ground_force4_px	ground_force4_py	ground_force4_pz	ground_torque4_x	ground_torque4_y	ground_torque4_z	ground_force1_vx	ground_force1_vy	ground_force1_vz	ground_force1_px	ground_force1_py	ground_force1_pz	ground_torque1_x	ground_torque1_y	ground_torque1_z	ground_force2_vx	ground_force2_vy	ground_force2_vz	ground_force2_px	ground_force2_py	ground_force2_pz	ground_torque2_x	ground_torque2_y	ground_torque2_z
2.876000	-0.000000	-0.000000	0.000000	0.200000	0.000000	-0.300000	0.000000	0.000000	-0.000000	2.491276	327.530273	26.284399	0.250989	0.000000	-1.313597	0.000004	-1.104363	0.000002	-4.563308	293.412598	-23.386883	0.250324	0.000000	-1.051483	-0.000007	0.547477	0.000003	-0.000000	-0.000000	0.000000	0.200000	0.000000	0.904000	0.000000	0.000000	-0.000000	-0.000000	-0.000000	0.000000	0.400000	0.000000	0.302000	0.000000	0.000000	-0.000000	
2.877000	-0.000000	-0.000000	0.000000	0.200000	0.000000	-0.300000	0.000000	0.000000	-0.000000	2.330064	326.568939	25.641584	0.250355	0.000000	-1.313247	0.000007	-1.053063	0.000004	-5.049524	293.413605	-23.065811	0.250123	0.000000	-1.049557	0.000039	0.518295	0.000003	-0.000000	-0.000000	0.000000	0.200000	0.000000	0.904000	0.000000	0.000000	-0.000000	-0.000000	-0.000000	0.000000	0.400000	0.000000	0.302000	0.000000	0.000000	-0.000000	
2.878000	-0.000000	-0.000000	0.000000	0.200000	0.000000	-0.300000	0.000000	0.000000	-0.000000	2.169870	328.163727	25.320179	0.250396	0.000000	-1.314171	0.000006	-1.167037	0.000008	-4.563308	293.094055	-23.224308	0.250137	0.000000	-1.049528	0.000011	0.584082	0.000003	-0.000000	-0.000000	0.000000	0.200000	0.000000	0.904000	0.000000	0.000000	-0.000000	-0.000000	-0.000000	0.000000	0.400000	0.000000	0.302000	0.000000	0.000000	-0.000000	
2.879000	-0.000000	-0.000000	0.000000	0.200000	0.000000	-0.300000	0.000000	0.000000	-0.000000	2.492296	326.248749	25.801781	0.250990	0.000000	-1.313730	0.000011	-1.266591	0.000003	-4.400722	294.695862	-23.549458	0.250029	0.000000	-1.048936	0.000013	0.487683	0.000008	-0.000000	-0.000000	0.000000	0.200000	0.000000	0.904000	0.000000	0.000000	-0.000000	-0.000000	-0.000000	0.000000	0.400000	0.000000	0.302000	0.000000	0.000000	-0.000000	
2.880000	-0.000000	-0.000000	0.000000	0.200000	0.000000	-0.300000	0.000000	0.000000	-0.000000	2.974915	326.565613	25.801781	0.250005	0.000000	-1.313199	0.000020	-1.115744	0.000003	-4.886938	291.493591	-23.869505	0.250430	0.000000	-1.050758	0.000023	0.637960	0.000002	-0.000000	-0.000000	0.000000	0.200000	0.000000	0.904000	0.000000	0.000000	-0.000000	-0.000000	-0.000000	0.000000	0.400000	0.000000	0.302000	0.000000	0.000000	-0.000000	
2.881000	-0.000000	-0.000000	0.000000	0.200000	0.000000	-0.300000	0.000000	0.000000	-0.000000	3.456516	323.694611	25.802118	0.250230	0.000000	-1.313314	0.000028	-0.830692	0.000005	-4.399178	293.735168	-23.870525	0.249718	0.000000	-1.050734	-0.000003	0.607271	0.000003	-0.000000	-0.000000	0.000000	0.200000	0.000000	0.904000	0.000000	0.000000	-0.000000	-0.000000	-0.000000	0.000000	0.400000	0.000000	0.302000	0.000000	0.000000	-0.000000	
2.882000	-0.000000	-0.000000	0.000000	0.200000	0.000000	-0.300000	0.000000	0.000000	-0.000000	2.975425	324.011200	26.283722	0.249777	0.000000	-1.314122	0.000003	-1.220090	0.000001	-4.885393	292.455933	-24.191593	0.249670	0.000000	-1.050103	0.000023	0.696999	0.000003	-0.000000	-0.000000	0.000000	0.200000	0.000000	0.904000	0.000000	0.000000	-0.000000	-0.000000	-0.000000	0.000000	0.400000	0.000000	0.302000	0.000000	0.000000	-0.000000	
2.883000	-0.000000	-0.000000	0.000000	0.200000	0.000000	-0.300000	0.000000	0.000000	-0.000000	2.814212	324.010864	26.283384	0.249973	0.000000	-1.313202	0.000003	-1.259574	0.000004	-4.558675	293.734161	-23.872566	0.249445	0.000000	-1.050762	0.000032	0.644328	0.000004	-0.000000	-0.000000	0.000000	0.200000	0.000000	0.904000	0.000000	0.000000	-0.000000	-0.000000	-0.000000	0.000000	0.400000	0.000000	0.302000	0.000000	0.000000	-0.000000	
2.884000	-0.000000	-0.000000	0.000000	0.200000	0.000000	-0.300000	0.000000	0.000000	-0.000000	3.940664	323.371063	25.641584	0.250022	0.000000	-1.313810	0.000029	-0.868776	0.000002	-4.886938	293.099091	-23.708971	0.249021	0.000000	-1.050654	0.000008	0.576690	0.000005	-0.000000	-0.000000	0.000000	0.200000	0.000000	0.904000	0.000000	0.000000	-0.000000	-0.000000	-0.000000	0.000000	0.400000	0.000000	0.302000	0.000000	0.000000	-0.000000	
